<?xml version="1.0" standalone="no"?>
<!DOCTYPE svg PUBLIC "-//W3C//DTD SVG 20010904//EN"
 "http://www.w3.org/TR/2001/REC-SVG-20010904/DTD/svg10.dtd">
<svg version="1.0" xmlns="http://www.w3.org/2000/svg"
 width="2718.000000pt" height="2717.000000pt" viewBox="0 0 2718.000000 2717.000000"
 preserveAspectRatio="xMidYMid meet">
<metadata>
Created by potrace 1.16, written by Peter Selinger 2001-2019
</metadata>
<g transform="translate(0.000000,2717.000000) scale(0.100000,-0.100000)"
fill="#000000" stroke="none">
<path d="M140 13615 l0 -13555 13520 0 13520 0 0 13555 0 13555 -13520 0
-13520 0 0 -13555z m17010 6365 c885 -80 1690 -527 2220 -1235 311 -415 500
-866 593 -1415 l21 -125 4 -3535 c2 -2563 0 -3569 -8 -3660 -37 -406 -171
-849 -366 -1203 -456 -830 -1261 -1410 -2189 -1576 -269 -48 -131 -46 -3845
-46 -3275 0 -3504 1 -3635 18 -703 88 -1312 377 -1809 857 -395 383 -672 840
-825 1361 -72 248 -107 461 -121 743 -13 248 -13 6594 0 6846 11 226 30 368
76 566 230 1000 933 1817 1889 2197 285 114 552 175 915 210 95 10 6975 6
7080 -3z"/>
<path d="M13280 17834 c-561 -26 -1177 -99 -1685 -200 -180 -35 -567 -128
-680 -162 l-60 -19 2 -44 c3 -69 263 -3071 268 -3096 5 -21 8 -20 128 28 263
107 405 139 601 138 95 0 148 -6 246 -28 69 -16 118 -31 110 -34 -8 -4 -62
-18 -120 -32 -245 -61 -491 -150 -705 -257 -256 -128 -435 -252 -612 -422
-396 -382 -606 -821 -664 -1390 -18 -183 -7 -653 21 -831 83 -547 265 -934
600 -1279 476 -491 1163 -752 2225 -846 196 -18 968 -24 1301 -11 477 19 904
54 1239 102 296 42 955 158 1350 238 l230 46 0 2595 c0 2778 2 2670 -50 3025
-106 721 -321 1205 -713 1607 -494 506 -1220 786 -2227 858 -156 11 -674 20
-805 14z m627 -2865 c42 -20 83 -76 83 -112 0 -12 402 -323 835 -647 190 -142
301 -276 364 -438 50 -131 61 -217 61 -483 0 -131 3 -239 8 -239 4 1 18 7 32
15 35 20 79 18 120 -4 58 -31 68 -60 76 -212 8 -153 0 -189 -46 -234 -26 -25
-40 -30 -95 -33 -49 -3 -65 -8 -65 -19 0 -9 39 -162 88 -342 l87 -326 0 -150
c-1 -137 -3 -157 -29 -230 -53 -153 -139 -277 -255 -368 -71 -56 -1003 -546
-1096 -577 -96 -31 -191 -43 -289 -37 -179 12 -251 42 -576 244 -124 76 -322
199 -440 272 -118 74 -243 153 -276 177 -202 142 -326 405 -311 654 4 66 72
447 104 578 5 20 2 22 -39 22 -59 0 -106 32 -135 90 -21 41 -23 58 -23 220 0
162 2 179 23 220 39 79 140 112 219 72 l36 -19 5 281 c3 253 6 288 26 356 47
161 147 322 259 419 31 27 148 118 259 203 111 84 348 265 528 401 179 137
338 253 353 257 44 13 63 11 109 -11z"/>
<path d="M13035 13578 c-165 -32 -306 -167 -350 -333 -63 -243 95 -499 343
-554 l42 -9 71 102 70 101 -69 6 c-120 11 -191 67 -218 171 -25 96 21 204 108
250 l43 23 715 0 715 0 48 -28 c144 -85 144 -299 0 -384 -37 -21 -63 -28 -134
-32 l-89 -6 71 -102 c79 -116 77 -115 182 -83 221 68 358 288 317 510 -29 160
-142 294 -298 353 -57 22 -63 22 -787 23 -438 1 -750 -2 -780 -8z"/>
<path d="M13473 12986 c-66 -31 -136 -95 -184 -169 -69 -106 -62 -188 25 -272
28 -27 60 -56 71 -63 47 -30 -73 0 -150 37 l-80 40 -43 -25 c-66 -39 -177
-148 -228 -225 -89 -134 -120 -255 -111 -428 6 -115 22 -184 69 -302 l30 -76
105 53 c122 62 334 134 483 163 202 40 280 46 540 45 278 0 399 -12 659 -64
80 -16 147 -27 150 -24 4 3 6 78 6 167 -1 186 -12 243 -76 372 -65 133 -185
257 -311 321 l-48 24 -41 -30 c-47 -34 -138 -70 -176 -70 -25 0 -25 1 13 28
83 60 134 139 134 205 0 80 -91 194 -218 270 -69 42 -100 51 -148 42 -51 -9
-125 -86 -151 -155 l-20 -54 -28 54 c-41 81 -71 116 -119 139 -55 27 -89 26
-153 -3z m136 -222 c48 -29 87 -107 105 -213 l6 -34 -46 7 c-148 20 -237 115
-208 223 9 35 96 45 143 17z m464 3 c25 -18 32 -76 14 -119 -9 -21 -34 -50
-57 -67 -57 -41 -190 -79 -190 -53 0 4 7 36 16 72 18 78 55 145 92 164 33 19
102 20 125 3z"/>
<path d="M13875 11633 c-199 -18 -425 -64 -607 -124 -126 -42 -318 -126 -318
-140 0 -15 191 -122 298 -167 167 -71 310 -103 483 -109 177 -7 276 6 416 52
198 66 359 164 515 313 54 52 95 98 91 102 -13 13 -216 49 -355 65 -119 13
-414 18 -523 8z"/>
</g>
</svg>
